# xmcd
#
# Track frame offsets:
#	150
#	11409
#	31680
#	51052
#	63216
#	79109
#	93038
#	107116
#	120345
#	143066
#	172270
#
# Disc length: 4440 seconds
#
# Revision: 1
# Processed by: cddbd v1.5.1PL0 Copyright (c) Steve Scherf et al.
# Submitted via: audiograbber 1.83.01
#
DISCID=7d11560b
DTITLE=The Blind Boys Of Alabama - Atom Bomb
DYEAR=2005
DGENRE=Gospel
TTITLE0=(Jesus Hits Like The) Atom Bomb
TTITLE1=Demons
TTITLE2=Talk About Suffering
TTITLE3=I Know I've Been Converted
TTITLE4=Old Blind Barnabas
TTITLE5=Spirit In The Sky
TTITLE6=Faith And Grace
TTITLE7=New Born Soul
TTITLE8=Presence Of The Lord
TTITLE9=Moses
TTITLE10=Daten-CD
EXTD=
EXTT0=
EXTT1=
EXTT2=
EXTT3=
EXTT4=
EXTT5=
EXTT6=
EXTT7=
EXTT8=
EXTT9=
EXTT10=
PLAYORDER=
